<svg xmlns="http://www.w3.org/2000/svg" width="27.67" height="27.671" viewBox="0 0 27.67 27.671">
  <g id="correct" transform="translate(-0.008)">
    <path id="Path_2007" data-name="Path 2007" d="M33,14.7,29.6,13.189,28.095,9.8l-3.691.385L21.4,8l-3,2.178L14.706,9.8,13.2,13.188,9.8,14.7l.386,3.691-2.178,3,2.178,3L9.8,28.087,13.2,29.6l1.51,3.393L18.4,32.6l3,2.178,3-2.178,3.689.385L29.6,29.6,33,28.087,32.611,24.4l2.178-3-2.178-3Z" transform="translate(-7.557 -7.557)" fill="#ffc107"/>
    <g id="Group_3678" data-name="Group 3678" transform="translate(0.008)">
      <path id="Path_2008" data-name="Path 2008" d="M27.593,13.573l-2.078-2.867.368-3.521a.446.446,0,0,0-.263-.454L22.386,5.292,20.947,2.058a.449.449,0,0,0-.454-.263l-3.521.368L14.1.085a.446.446,0,0,0-.524,0L10.714,2.163,7.193,1.795a.452.452,0,0,0-.454.262L5.3,5.292,2.065,6.732a.446.446,0,0,0-.262.454l.368,3.521L.093,13.573a.446.446,0,0,0,0,.524l2.078,2.866L1.8,20.485a.446.446,0,0,0,.262.454L5.3,22.378l1.439,3.235a.451.451,0,0,0,.454.263l3.521-.368,2.867,2.078a.446.446,0,0,0,.524,0l2.866-2.078,3.521.368a.449.449,0,0,0,.454-.262l1.439-3.235,3.234-1.44a.447.447,0,0,0,.263-.454l-.368-3.521L27.593,14.1A.446.446,0,0,0,27.593,13.573Zm-2.9,3a.445.445,0,0,0-.083.308l.352,3.369-3.1,1.378a.443.443,0,0,0-.227.226l-1.377,3.1L16.893,24.6a.445.445,0,0,0-.308.083l-2.742,1.988L11.1,24.685a.441.441,0,0,0-.261-.085.291.291,0,0,0-.045,0l-3.37.352-1.377-3.1a.446.446,0,0,0-.227-.227l-3.1-1.377.352-3.369a.447.447,0,0,0-.083-.308L1.005,13.835l1.988-2.743a.447.447,0,0,0,.083-.308L2.724,7.415l3.1-1.378a.442.442,0,0,0,.227-.226l1.377-3.1,3.37.352a.45.45,0,0,0,.308-.083L13.843,1l2.743,1.988a.449.449,0,0,0,.308.083l3.369-.352,1.377,3.1a.446.446,0,0,0,.227.227l3.1,1.377-.352,3.369a.445.445,0,0,0,.083.308l1.988,2.743Zm0,0" transform="translate(-0.008)" fill="#f0b400"/>
      <path id="Path_2009" data-name="Path 2009" d="M136.185,155.1a.446.446,0,0,0-.631,0l-7.258,7.258-2.211-2.206a.446.446,0,0,0-.63,0L124.19,161.4a.446.446,0,0,0,0,.632l3.789,3.789a.447.447,0,0,0,.631,0l8.836-8.837a.447.447,0,0,0,0-.631Z" transform="translate(-117.138 -146.32)" fill="#fff" stroke="#f0b400" stroke-linejoin="round" stroke-width="0.5"/>
    </g>
  </g>
</svg>
