<svg width="137" height="132" viewBox="0 0 137 132" fill="none" xmlns="http://www.w3.org/2000/svg">
<path d="M137 66.6921C137 59.2991 133.654 52.3671 127.81 46.4001C123.744 42.2513 120.356 37.488 117.772 32.2851C109.507 15.6371 95.415 4.67212 79.418 4.67212C68.05 4.67212 57.645 10.2101 49.609 19.3901C44.2718 25.4449 37.5807 30.1543 30.08 33.1351C11.927 40.4251 0 52.7341 0 66.6921C0 80.6501 11.927 92.9561 30.08 100.249C37.5811 103.23 44.2725 107.94 49.61 113.995C57.646 123.174 68.051 128.713 79.419 128.713C95.419 128.713 109.507 117.748 117.773 101.1C120.357 95.8973 123.745 91.1339 127.811 86.9851C133.654 81.0171 137 74.0861 137 66.6921Z" fill="url(#paint0_linear)"/>
<path opacity="0.1" d="M114.046 121.297L99.126 80.2971L97.757 76.5351L100.702 76.5681C101.129 76.5728 101.551 76.4751 101.933 76.2831C102.315 76.0912 102.645 75.8107 102.896 75.465C103.148 75.1193 103.312 74.7185 103.377 74.2961C103.441 73.8737 103.404 73.442 103.267 73.0371L102.167 69.7751C102.053 69.4374 102.008 69.0803 102.034 68.7249C102.06 68.3694 102.157 68.0227 102.318 67.7052C102.48 67.3877 102.704 67.1056 102.976 66.8757C103.248 66.6457 103.564 66.4725 103.904 66.3661L107.189 65.3391C107.597 65.2116 107.968 64.9883 108.272 64.6878C108.576 64.3873 108.804 64.0184 108.936 63.612C109.068 63.2056 109.101 62.7734 109.031 62.3517C108.962 61.93 108.793 61.531 108.538 61.1881L106.484 58.4261C106.271 58.14 106.118 57.8143 106.033 57.4682C105.948 57.122 105.933 56.7624 105.989 56.4104C106.045 56.0583 106.171 55.721 106.359 55.4182C106.547 55.1154 106.793 54.8533 107.084 54.6471L109.891 52.6551C110.239 52.4077 110.523 52.0806 110.72 51.701C110.916 51.3214 111.018 50.9003 111.018 50.4731C111.018 50.0458 110.916 49.6248 110.72 49.2452C110.523 48.8656 110.239 48.5384 109.891 48.2911L107.084 46.2991C106.793 46.0929 106.547 45.8307 106.359 45.5279C106.171 45.2251 106.045 44.8878 105.989 44.5358C105.933 44.1838 105.948 43.8241 106.033 43.478C106.118 43.1318 106.271 42.8062 106.484 42.5201L108.538 39.7581C108.793 39.4152 108.962 39.0161 109.031 38.5944C109.101 38.1727 109.068 37.7406 108.936 37.3342C108.804 36.9277 108.576 36.5588 108.272 36.2584C107.968 35.9579 107.597 35.7346 107.189 35.6071L103.904 34.5801C103.564 34.4737 103.248 34.3005 102.976 34.0705C102.704 33.8405 102.48 33.5585 102.318 33.241C102.157 32.9234 102.06 32.5767 102.034 32.2213C102.008 31.8659 102.053 31.5088 102.167 31.1711L103.267 27.9091C103.404 27.5042 103.441 27.0725 103.377 26.6501C103.312 26.2277 103.148 25.8269 102.896 25.4812C102.645 25.1355 102.315 24.8549 101.933 24.663C101.551 24.4711 101.129 24.3734 100.702 24.3781L97.26 24.4171C96.9037 24.421 96.5502 24.3536 96.2203 24.2191C95.8903 24.0845 95.5906 23.8854 95.3386 23.6335C95.0867 23.3815 94.8876 23.0818 94.753 22.7518C94.6184 22.4219 94.5511 22.0684 94.555 21.7121L94.593 18.2701C94.5977 17.8428 94.5 17.4206 94.3081 17.0389C94.1162 16.6571 93.8356 16.3268 93.4899 16.0757C93.1442 15.8246 92.7434 15.6599 92.321 15.5954C91.8986 15.5309 91.4669 15.5685 91.062 15.7051L87.8 16.8051C87.4623 16.9189 87.1052 16.9642 86.7498 16.9382C86.3943 16.9122 86.0477 16.8155 85.7301 16.6537C85.4126 16.4919 85.1305 16.2683 84.9006 15.996C84.6706 15.7237 84.4974 15.4082 84.391 15.0681L83.364 11.7831C83.2365 11.3752 83.0132 11.0038 82.7127 10.6999C82.4123 10.396 82.0434 10.1685 81.6369 10.0364C81.2305 9.90435 80.7984 9.87153 80.3766 9.94071C79.9549 10.0099 79.5559 10.1791 79.213 10.4341L76.451 12.4881C76.1649 12.7007 75.8392 12.854 75.4931 12.939C75.1469 13.024 74.7873 13.039 74.4353 12.9831C74.0833 12.9272 73.746 12.8015 73.4432 12.6135C73.1404 12.4255 72.8782 12.1788 72.672 11.8881L70.68 9.08108C70.4327 8.7327 70.1055 8.44861 69.7259 8.25257C69.3463 8.05652 68.9252 7.95422 68.498 7.95422C68.0708 7.95422 67.6497 8.05652 67.2701 8.25257C66.8905 8.44861 66.5633 8.7327 66.316 9.08108L64.324 11.8881C64.1178 12.1788 63.8557 12.4255 63.5529 12.6135C63.2501 12.8015 62.9128 12.9272 62.5607 12.9831C62.2087 13.039 61.8491 13.024 61.5029 12.939C61.1568 12.854 60.8311 12.7007 60.545 12.4881L57.783 10.4341C57.4401 10.1791 57.0411 10.0099 56.6194 9.94071C56.1977 9.87153 55.7655 9.90435 55.3591 10.0364C54.9527 10.1685 54.5838 10.396 54.2833 10.6999C53.9828 11.0038 53.7595 11.3752 53.632 11.7831L52.607 15.0681C52.5006 15.4082 52.3274 15.7237 52.0974 15.996C51.8675 16.2683 51.5854 16.4919 51.2679 16.6537C50.9503 16.8155 50.6037 16.9122 50.2482 16.9382C49.8928 16.9642 49.5357 16.9189 49.198 16.8051L45.936 15.7051C45.5313 15.5688 45.0999 15.5313 44.6778 15.5958C44.2557 15.6603 43.8552 15.8248 43.5096 16.0757C43.1641 16.3266 42.8836 16.6565 42.6916 17.0379C42.4996 17.4193 42.4017 17.8411 42.406 18.2681L42.444 21.7101C42.4479 22.0664 42.3806 22.4199 42.246 22.7498C42.1114 23.0798 41.9123 23.3795 41.6604 23.6315C41.4084 23.8834 41.1087 24.0825 40.7787 24.2171C40.4488 24.3516 40.0953 24.419 39.739 24.4151L36.297 24.3761C35.8697 24.3714 35.4476 24.4691 35.0658 24.661C34.684 24.8529 34.3538 25.1335 34.1026 25.4792C33.8515 25.8249 33.6868 26.2257 33.6223 26.6481C33.5579 27.0705 33.5955 27.5022 33.732 27.9071L34.832 31.1691C34.9459 31.5068 34.9911 31.8639 34.9651 32.2193C34.9391 32.5747 34.8424 32.9214 34.6806 33.239C34.5188 33.5565 34.2952 33.8385 34.0229 34.0685C33.7506 34.2984 33.4352 34.4717 33.095 34.5781L29.81 35.6081C29.4021 35.7356 29.0307 35.9589 28.7268 36.2594C28.4229 36.5598 28.1954 36.9287 28.0634 37.3352C27.9313 37.7416 27.8985 38.1737 27.9676 38.5954C28.0368 39.0171 28.206 39.4162 28.461 39.7591L30.515 42.5211C30.7276 42.8072 30.8809 43.1329 30.9659 43.479C31.0509 43.8251 31.0659 44.1848 31.01 44.5368C30.9541 44.8888 30.8285 45.2261 30.6404 45.5289C30.4524 45.8317 30.2058 46.0939 29.915 46.3001L27.108 48.2921C26.7596 48.5394 26.4755 48.8666 26.2795 49.2462C26.0834 49.6258 25.9812 50.0468 25.9812 50.4741C25.9812 50.9013 26.0834 51.3224 26.2795 51.702C26.4755 52.0816 26.7596 52.4087 27.108 52.6561L29.915 54.6481C30.2058 54.8543 30.4524 55.1164 30.6404 55.4192C30.8285 55.722 30.9541 56.0593 31.01 56.4114C31.0659 56.7634 31.0509 57.123 30.9659 57.4692C30.8809 57.8153 30.7276 58.141 30.515 58.4271L28.461 61.1891C28.206 61.532 28.0368 61.931 27.9676 62.3527C27.8985 62.7744 27.9313 63.2066 28.0634 63.613C28.1954 64.0194 28.4229 64.3883 28.7268 64.6888C29.0307 64.9893 29.4021 65.2126 29.81 65.3401L33.095 66.3681C33.4352 66.4745 33.7506 66.6477 34.0229 66.8777C34.2952 67.1076 34.5188 67.3897 34.6806 67.7072C34.8424 68.0247 34.9391 68.3714 34.9651 68.7269C34.9911 69.0823 34.9459 69.4394 34.832 69.7771L33.732 73.0391C33.5955 73.444 33.5579 73.8757 33.6223 74.2981C33.6868 74.7205 33.8515 75.1213 34.1026 75.467C34.3538 75.8127 34.684 76.0932 35.0658 76.2851C35.4476 76.4771 35.8697 76.5748 36.297 76.5701L39.242 76.5371L37.873 80.2991L22.953 121.299C22.8915 121.468 22.8756 121.65 22.9071 121.827C22.9387 122.004 23.0164 122.169 23.1324 122.306C23.2485 122.443 23.3987 122.548 23.5679 122.608C23.7372 122.668 23.9193 122.683 24.096 122.65L36.896 120.306C37.0743 120.273 37.2581 120.289 37.4285 120.351C37.5988 120.413 37.7495 120.519 37.865 120.659L46.16 130.68C46.2746 130.819 46.4238 130.924 46.5924 130.987C46.761 131.049 46.9431 131.066 47.1203 131.036C47.2976 131.005 47.4636 130.929 47.6017 130.814C47.7398 130.698 47.8451 130.549 47.907 130.38L61.807 92.2021L63.271 88.1801C63.6974 88.3748 64.0648 88.6787 64.336 89.0611L66.328 91.8681C66.5753 92.2165 66.9025 92.5005 67.2821 92.6966C67.6617 92.8926 68.0828 92.9949 68.51 92.9949C68.9373 92.9949 69.3583 92.8926 69.7379 92.6966C70.1175 92.5005 70.4447 92.2165 70.692 91.8681L72.684 89.0611C72.9552 88.6787 73.3226 88.3748 73.749 88.1801L75.213 92.2021L89.113 130.38C89.1749 130.549 89.2802 130.698 89.4183 130.814C89.5564 130.929 89.7225 131.005 89.8997 131.036C90.0769 131.066 90.259 131.049 90.4276 130.987C90.5962 130.924 90.7454 130.819 90.86 130.68L99.155 120.659C99.2705 120.519 99.4212 120.413 99.5916 120.351C99.7619 120.289 99.9457 120.273 100.124 120.306L112.924 122.65C113.099 122.679 113.279 122.661 113.445 122.599C113.612 122.536 113.759 122.432 113.872 122.295C113.986 122.158 114.061 121.994 114.092 121.819C114.122 121.644 114.107 121.464 114.046 121.297Z" fill="#0000CC"/>
<path d="M112.904 117.03L100.104 114.686C99.9257 114.653 99.7418 114.669 99.5715 114.731C99.4012 114.793 99.2505 114.899 99.135 115.039L90.84 125.06C90.7253 125.199 90.5762 125.304 90.4076 125.367C90.2389 125.429 90.0569 125.446 89.8796 125.416C89.7024 125.385 89.5364 125.309 89.3983 125.194C89.2601 125.078 89.1548 124.929 89.093 124.76L75.198 86.5791L69.153 69.9701L94.102 60.8881L99.122 74.6761L114.042 115.676C114.104 115.845 114.12 116.026 114.089 116.203C114.058 116.38 113.981 116.546 113.866 116.683C113.75 116.82 113.6 116.925 113.431 116.986C113.263 117.047 113.081 117.062 112.904 117.03Z" fill="#FF4D4D"/>
<path d="M98.313 74.6691L98.34 77.0161C98.352 77.8649 98.1944 78.7077 97.8763 79.4949C97.5583 80.282 97.0863 80.9978 96.488 81.6001C95.6425 82.4567 94.5732 83.0585 93.4021 83.3366C92.231 83.6148 91.0054 83.5581 89.865 83.173L87.641 82.4211L86.941 84.6631C86.6349 85.6419 86.0989 86.5332 85.3778 87.2624C84.6567 87.9916 83.7715 88.5376 82.7961 88.8546C81.8208 89.1716 80.7837 89.2505 79.7717 89.0846C78.7597 88.9187 77.802 88.5129 76.979 87.901L75.198 86.5791L69.153 69.9701L94.102 60.8881L99.122 74.6761L98.313 74.6691Z" fill="#FF2C2C"/>
<path d="M105.463 115.668L100.109 114.686C99.9307 114.653 99.7469 114.669 99.5765 114.731C99.4062 114.793 99.2555 114.899 99.14 115.039L95.667 119.239L84.343 88.1181L76.733 67.2121L86.533 63.6481L93.672 83.2641L105.463 115.668Z" fill="#FF6C6C"/>
<path d="M93.668 83.2641C92.4215 83.6205 91.096 83.5887 89.868 83.1731L87.644 82.4211L86.944 84.6631C86.503 86.0805 85.5842 87.3012 84.344 88.1171L76.734 67.2111L86.534 63.6471L93.668 83.2641Z" fill="#FF4D4D"/>
<path d="M67.846 69.9711L61.797 86.5791L47.897 124.757C47.8351 124.926 47.7298 125.075 47.5917 125.191C47.4536 125.306 47.2876 125.382 47.1103 125.413C46.9331 125.443 46.751 125.426 46.5824 125.364C46.4138 125.301 46.2646 125.196 46.15 125.057L37.855 115.036C37.7395 114.896 37.5888 114.79 37.4184 114.728C37.2481 114.666 37.0643 114.65 36.886 114.683L24.086 117.027C23.9093 117.06 23.7272 117.045 23.5579 116.985C23.3887 116.924 23.2385 116.82 23.1224 116.683C23.0064 116.546 22.9286 116.381 22.8971 116.204C22.8656 116.027 22.8814 115.845 22.943 115.676L37.863 74.6761L42.883 60.8881L67.846 69.9711Z" fill="#FF4D4D"/>
<path d="M42.893 60.889L67.842 69.971L61.797 86.579L60.02 87.898C59.1974 88.5108 58.24 88.9175 57.2279 89.0841C56.2157 89.2507 55.1784 89.1723 54.2029 88.8555C53.2273 88.5387 52.3418 87.9927 51.6207 87.2632C50.8995 86.5338 50.3637 85.6422 50.058 84.6631L49.358 82.4211L47.134 83.173C46.1622 83.5008 45.1261 83.5911 44.1123 83.4362C43.0984 83.2814 42.1364 82.8861 41.3067 82.2833C40.4771 81.6804 39.8038 80.8877 39.3433 79.9713C38.8829 79.0549 38.6486 78.0415 38.66 77.016L38.687 74.669L37.874 74.677L42.893 60.889Z" fill="#FF2C2C"/>
<path d="M60.267 67.2121L52.657 88.1181L41.333 119.235L37.86 115.035C37.7445 114.895 37.5938 114.789 37.4234 114.727C37.2531 114.665 37.0693 114.649 36.891 114.682L31.537 115.664L43.332 83.2641L50.471 63.6481L60.267 67.2121Z" fill="#FF6C6C"/>
<path d="M60.267 67.2121L52.657 88.118C51.4169 87.3022 50.498 86.0815 50.057 84.664L49.357 82.4221L47.133 83.174C46.4709 83.3974 45.7768 83.5112 45.078 83.511C44.487 83.5115 43.8989 83.4287 43.331 83.265L50.47 63.649L60.267 67.2121Z" fill="#FF4D4D"/>
<path d="M70.68 3.464L72.672 6.271C72.8782 6.56175 73.1403 6.80839 73.4431 6.99643C73.7459 7.18446 74.0832 7.31012 74.4353 7.36601C74.7873 7.4219 75.1469 7.4069 75.4931 7.3219C75.8392 7.2369 76.1649 7.0836 76.451 6.871L79.213 4.817C79.5559 4.56199 79.9549 4.39281 80.3766 4.32363C80.7984 4.25445 81.2305 4.28727 81.6369 4.41935C82.0434 4.55143 82.4122 4.77893 82.7127 5.08281C83.0132 5.38669 83.2365 5.75811 83.364 6.166L84.391 9.451C84.4974 9.79115 84.6706 10.1066 84.9006 10.3789C85.1305 10.6512 85.4126 10.8748 85.7301 11.0366C86.0477 11.1984 86.3943 11.2951 86.7498 11.3211C87.1052 11.3471 87.4623 11.3019 87.8 11.188L91.062 10.088C91.4669 9.95145 91.8986 9.91385 92.321 9.97833C92.7434 10.0428 93.1442 10.2075 93.4899 10.4586C93.8356 10.7098 94.1162 11.04 94.3081 11.4218C94.5 11.8036 94.5977 12.2257 94.593 12.653L94.555 16.095C94.5511 16.4513 94.6184 16.8048 94.753 17.1347C94.8876 17.4647 95.0867 17.7644 95.3386 18.0164C95.5906 18.2683 95.8903 18.4674 96.2203 18.602C96.5502 18.7366 96.9037 18.8039 97.26 18.8L100.702 18.762C101.129 18.7573 101.551 18.855 101.933 19.0469C102.315 19.2388 102.645 19.5194 102.896 19.8651C103.147 20.2108 103.312 20.6116 103.377 21.034C103.441 21.4564 103.404 21.8881 103.267 22.293L102.167 25.555C102.053 25.8927 102.008 26.2498 102.034 26.6052C102.06 26.9607 102.157 27.3073 102.318 27.6249C102.48 27.9424 102.704 28.2245 102.976 28.4544C103.248 28.6844 103.564 28.8576 103.904 28.964L107.189 29.991C107.597 30.1185 107.968 30.3418 108.272 30.6423C108.576 30.9428 108.804 31.3116 108.936 31.7181C109.068 32.1245 109.101 32.5566 109.031 32.9784C108.962 33.4001 108.793 33.7991 108.538 34.142L106.48 36.902C106.267 37.1881 106.114 37.5138 106.029 37.8599C105.944 38.2061 105.929 38.5657 105.985 38.9177C106.041 39.2698 106.167 39.6071 106.355 39.9099C106.543 40.2127 106.789 40.4748 107.08 40.681L109.887 42.673C110.235 42.9203 110.519 43.2475 110.716 43.6271C110.912 44.0067 111.014 44.4278 111.014 44.855C111.014 45.2822 110.912 45.7033 110.716 46.0829C110.519 46.4625 110.235 46.7897 109.887 47.037L107.08 49.029C106.789 49.2352 106.543 49.4974 106.355 49.8002C106.167 50.1029 106.041 50.4403 105.985 50.7923C105.929 51.1443 105.944 51.5039 106.029 51.8501C106.114 52.1962 106.267 52.5219 106.48 52.808L108.534 55.57C108.789 55.9129 108.958 56.3119 109.027 56.7336C109.097 57.1554 109.064 57.5875 108.932 57.9939C108.8 58.4004 108.572 58.7692 108.268 59.0697C107.964 59.3702 107.593 59.5935 107.185 59.721L103.905 60.75C103.565 60.8564 103.249 61.0296 102.977 61.2596C102.705 61.4895 102.481 61.7716 102.319 62.0891C102.158 62.4067 102.061 62.7533 102.035 63.1088C102.009 63.4642 102.054 63.8213 102.168 64.159L103.268 67.421C103.405 67.8259 103.442 68.2576 103.378 68.68C103.313 69.1024 103.148 69.5032 102.897 69.8489C102.646 70.1946 102.316 70.4752 101.934 70.6671C101.552 70.859 101.13 70.9567 100.703 70.952L97.261 70.914C96.9047 70.9101 96.5512 70.9774 96.2213 71.112C95.8913 71.2466 95.5916 71.4457 95.3396 71.6976C95.0877 71.9496 94.8886 72.2493 94.754 72.5793C94.6194 72.9092 94.5521 73.2627 94.556 73.619L94.594 77.061C94.5987 77.4883 94.501 77.9104 94.3091 78.2922C94.1171 78.674 93.8366 79.0042 93.4909 79.2554C93.1452 79.5065 92.7444 79.6712 92.322 79.7357C91.8996 79.8002 91.4679 79.7626 91.063 79.626L87.801 78.526C87.4633 78.4121 87.1062 78.3669 86.7508 78.3929C86.3953 78.4189 86.0487 78.5156 85.7311 78.6774C85.4136 78.8392 85.1315 79.0628 84.9016 79.3351C84.6716 79.6074 84.4984 79.9229 84.392 80.263L83.365 83.548C83.2375 83.9559 83.0142 84.3273 82.7137 84.6312C82.4132 84.9351 82.0444 85.1626 81.6379 85.2946C81.2315 85.4267 80.7994 85.4596 80.3776 85.3904C79.9559 85.3212 79.5569 85.152 79.214 84.897L76.452 82.843C76.1659 82.6304 75.8402 82.4771 75.4941 82.3921C75.1479 82.3071 74.7883 82.2921 74.4363 82.348C74.0842 82.4039 73.7469 82.5295 73.4441 82.7176C73.1413 82.9056 72.8792 83.1523 72.673 83.443L70.68 86.25C70.4327 86.5984 70.1055 86.8825 69.7259 87.0785C69.3463 87.2746 68.9252 87.3769 68.498 87.3769C68.0707 87.3769 67.6497 87.2746 67.2701 87.0785C66.8905 86.8825 66.5633 86.5984 66.316 86.25L64.324 83.443C64.1178 83.1523 63.8556 82.9056 63.5528 82.7176C63.2501 82.5295 62.9127 82.4039 62.5607 82.348C62.2087 82.2921 61.8491 82.3071 61.5029 82.3921C61.1568 82.4771 60.8311 82.6304 60.545 82.843L57.783 84.897C57.4401 85.152 57.0411 85.3212 56.6194 85.3904C56.1976 85.4596 55.7655 85.4267 55.3591 85.2946C54.9526 85.1626 54.5838 84.9351 54.2833 84.6312C53.9828 84.3273 53.7595 83.9559 53.632 83.548L52.605 80.263C52.4986 79.9229 52.3254 79.6074 52.0954 79.3351C51.8655 79.0628 51.5834 78.8392 51.2659 78.6774C50.9483 78.5156 50.6017 78.4189 50.2462 78.3929C49.8908 78.3669 49.5337 78.4121 49.196 78.526L45.934 79.626C45.5291 79.7626 45.0974 79.8002 44.675 79.7357C44.2526 79.6712 43.8518 79.5065 43.5061 79.2554C43.1604 79.0042 42.8798 78.674 42.6879 78.2922C42.496 77.9104 42.3983 77.4883 42.403 77.061L42.441 73.619C42.4449 73.2627 42.3776 72.9092 42.243 72.5793C42.1084 72.2493 41.9093 71.9496 41.6574 71.6976C41.4054 71.4457 41.1057 71.2466 40.7757 71.112C40.4458 70.9774 40.0923 70.9101 39.736 70.914L36.294 70.952C35.8667 70.9567 35.4446 70.859 35.0628 70.6671C34.681 70.4752 34.3508 70.1946 34.0996 69.8489C33.8485 69.5032 33.6838 69.1024 33.6193 68.68C33.5548 68.2576 33.5924 67.8259 33.729 67.421L34.829 64.159C34.9429 63.8213 34.9881 63.4642 34.9621 63.1088C34.9361 62.7533 34.8394 62.4067 34.6776 62.0891C34.5158 61.7716 34.2922 61.4895 34.0199 61.2596C33.7476 61.0296 33.4321 60.8564 33.092 60.75L29.81 59.72C29.4021 59.5925 29.0307 59.3692 28.7268 59.0687C28.4229 58.7682 28.1954 58.3994 28.0633 57.9929C27.9313 57.5865 27.8984 57.1544 27.9676 56.7326C28.0368 56.3109 28.206 55.9119 28.461 55.569L30.515 52.807C30.7276 52.5209 30.8809 52.1952 30.9659 51.8491C31.0509 51.5029 31.0659 51.1433 31.01 50.7913C30.9541 50.4393 30.8285 50.1019 30.6404 49.7992C30.4524 49.4964 30.2058 49.2342 29.915 49.028L27.108 47.036C26.7596 46.7887 26.4755 46.4615 26.2795 46.0819C26.0834 45.7023 25.9811 45.2812 25.9811 44.854C25.9811 44.4268 26.0834 44.0057 26.2795 43.6261C26.4755 43.2465 26.7596 42.9193 27.108 42.672L29.915 40.68C30.2058 40.4738 30.4524 40.2117 30.6404 39.9089C30.8285 39.6061 30.9541 39.2688 31.01 38.9167C31.0659 38.5647 31.0509 38.2051 30.9659 37.8589C30.8809 37.5128 30.7276 37.1871 30.515 36.901L28.461 34.14C28.206 33.7971 28.0368 33.3981 27.9676 32.9764C27.8984 32.5546 27.9313 32.1225 28.0633 31.7161C28.1954 31.3096 28.4229 30.9408 28.7268 30.6403C29.0307 30.3398 29.4021 30.1165 29.81 29.989L33.095 28.962C33.4351 28.8556 33.7506 28.6824 34.0229 28.4524C34.2952 28.2225 34.5188 27.9404 34.6806 27.6229C34.8424 27.3053 34.9391 26.9587 34.9651 26.6032C34.9911 26.2478 34.9459 25.8907 34.832 25.553L33.732 22.291C33.5954 21.8861 33.5578 21.4544 33.6223 21.032C33.6868 20.6096 33.8515 20.2088 34.1026 19.8631C34.3538 19.5174 34.684 19.2368 35.0658 19.0449C35.4476 18.853 35.8697 18.7553 36.297 18.76L39.739 18.798C40.0953 18.8019 40.4488 18.7346 40.7787 18.6C41.1087 18.4654 41.4084 18.2663 41.6604 18.0144C41.9123 17.7624 42.1114 17.4627 42.246 17.1327C42.3806 16.8028 42.4479 16.4493 42.444 16.093L42.406 12.651C42.4013 12.2237 42.499 11.8016 42.6909 11.4198C42.8828 11.038 43.1634 10.7078 43.5091 10.4566C43.8548 10.2055 44.2556 10.0408 44.678 9.97633C45.1004 9.91185 45.5321 9.94945 45.937 10.086L49.199 11.186C49.5367 11.2999 49.8938 11.3451 50.2492 11.3191C50.6047 11.2931 50.9513 11.1964 51.2689 11.0346C51.5864 10.8728 51.8685 10.6492 52.0984 10.3769C52.3284 10.1046 52.5016 9.78915 52.608 9.449L53.635 6.164C53.7625 5.75611 53.9858 5.38469 54.2863 5.08081C54.5868 4.77693 54.9556 4.54943 55.3621 4.41735C55.7685 4.28527 56.2006 4.25245 56.6224 4.32163C57.0441 4.39081 57.4431 4.55999 57.786 4.815L60.548 6.869C60.8341 7.08159 61.1598 7.23489 61.5059 7.3199C61.8521 7.4049 62.2117 7.4199 62.5637 7.36401C62.9158 7.30812 63.2531 7.18246 63.5559 6.99443C63.8587 6.80639 64.1208 6.55975 64.327 6.269L66.319 3.462C66.5666 3.11433 66.8937 2.83093 67.2731 2.63544C67.6525 2.43996 68.0732 2.33806 68.5 2.33826C68.9268 2.33845 69.3474 2.44074 69.7266 2.63657C70.1058 2.8324 70.4327 3.11611 70.68 3.464Z" fill="#FFAB66"/>
<path d="M115.302 115.22L101.762 78.0141C101.635 77.6882 101.386 77.425 101.067 77.2807C100.749 77.1365 100.386 77.1227 100.058 77.2423C99.729 77.3619 99.4602 77.6054 99.3089 77.9206C99.1576 78.2359 99.1357 78.5979 99.248 78.9291L112.602 115.614L100.351 113.369C99.9387 113.294 99.5138 113.33 99.12 113.474C98.7263 113.617 98.3777 113.863 98.11 114.185L90.168 123.779L75.658 83.9141L78.417 85.9661C78.9313 86.3485 79.5298 86.6022 80.1623 86.7059C80.7947 86.8097 81.4429 86.7605 82.0524 86.5624C82.662 86.3643 83.2153 86.0232 83.666 85.5675C84.1166 85.1118 84.4517 84.5548 84.643 83.9431L85.67 80.6581C85.7232 80.4885 85.8096 80.3312 85.9242 80.1953C86.0389 80.0595 86.1795 79.9479 86.3377 79.867C86.496 79.7861 86.6688 79.7375 86.846 79.7241C87.0233 79.7108 87.2014 79.7328 87.37 79.7891L90.632 80.8891C91.2396 81.0946 91.8875 81.1515 92.5216 81.0551C93.1558 80.9587 93.7575 80.7117 94.2765 80.3349C94.7956 79.9581 95.2167 79.4624 95.5048 78.8893C95.7928 78.3162 95.9393 77.6824 95.932 77.0411L95.893 73.5991C95.891 73.4222 95.9241 73.2467 95.9904 73.0827C96.0567 72.9187 96.1548 72.7694 96.2792 72.6436C96.4035 72.5178 96.5516 72.4179 96.7148 72.3496C96.878 72.2814 97.0531 72.2462 97.23 72.2461H97.246L100.688 72.2851H100.732C101.369 72.2847 101.997 72.1325 102.564 71.8413C103.131 71.55 103.62 71.1279 103.992 70.61C104.363 70.092 104.606 69.4931 104.7 68.8628C104.794 68.2324 104.736 67.5888 104.532 66.9851L103.432 63.7231C103.376 63.5545 103.354 63.3764 103.367 63.1993C103.38 63.0221 103.429 62.8493 103.51 62.6911C103.59 62.5328 103.702 62.3922 103.838 62.2775C103.973 62.1628 104.13 62.0763 104.3 62.0231L107.586 60.9961C108.198 60.8048 108.755 60.4698 109.211 60.019C109.667 59.5682 110.008 59.0148 110.206 58.4051C110.404 57.7954 110.453 57.1471 110.349 56.5145C110.245 55.8819 109.992 55.2834 109.609 54.7691L107.558 52.0091C107.452 51.866 107.375 51.7031 107.332 51.53C107.29 51.3569 107.282 51.177 107.31 51.0009C107.338 50.8249 107.401 50.6561 107.495 50.5047C107.589 50.3533 107.713 50.2221 107.858 50.1191L110.665 48.1271C111.188 47.7561 111.614 47.2653 111.908 46.6959C112.202 46.1265 112.355 45.4949 112.355 44.8541C112.355 44.2132 112.202 43.5816 111.908 43.0122C111.614 42.4428 111.188 41.9521 110.665 41.5811L107.858 39.5891C107.713 39.486 107.589 39.3549 107.495 39.2034C107.401 39.052 107.338 38.8833 107.31 38.7072C107.282 38.5311 107.29 38.3512 107.332 38.1781C107.375 38.005 107.452 37.8421 107.558 37.6991L109.612 34.9371C109.994 34.4227 110.248 33.8243 110.352 33.1918C110.456 32.5593 110.406 31.9112 110.208 31.3016C110.01 30.6921 109.669 30.1388 109.213 29.6881C108.758 29.2374 108.201 28.9024 107.589 28.7111L104.302 27.6851C104.132 27.6319 103.975 27.5455 103.839 27.4308C103.703 27.3162 103.592 27.1756 103.511 27.0173C103.43 26.8591 103.381 26.6863 103.368 26.509C103.355 26.3318 103.377 26.1537 103.433 25.9851L104.533 22.7231C104.739 22.1155 104.795 21.4675 104.699 20.8334C104.603 20.1993 104.356 19.5975 103.979 19.0785C103.602 18.5595 103.106 18.1383 102.533 17.8503C101.96 17.5623 101.326 17.4158 100.685 17.4231L97.243 17.4621H97.227C97.0501 17.4619 96.875 17.4267 96.7118 17.3585C96.5486 17.2903 96.4005 17.1903 96.2762 17.0645C96.1519 16.9387 96.0537 16.7895 95.9874 16.6255C95.9211 16.4615 95.888 16.2859 95.89 16.1091L95.929 12.6671C95.9363 12.0257 95.7898 11.3919 95.5018 10.8189C95.2137 10.2458 94.7926 9.75005 94.2736 9.37322C93.7545 8.99639 93.1528 8.74942 92.5187 8.653C91.8845 8.55659 91.2366 8.61353 90.629 8.81906L87.367 9.91906C87.1984 9.97531 87.0204 9.99743 86.8432 9.98411C86.666 9.9708 86.4932 9.92233 86.335 9.84153C86.1767 9.76073 86.0362 9.64921 85.9215 9.51349C85.8068 9.37778 85.7203 9.22057 85.667 9.05106L84.64 5.76506C84.4487 5.15319 84.1137 4.59603 83.6629 4.1402C83.2121 3.68438 82.6588 3.34315 82.0491 3.14507C81.4394 2.94699 80.7911 2.89783 80.1585 3.00169C79.5259 3.10556 78.9273 3.35943 78.413 3.74206L75.652 5.79606C75.5089 5.90244 75.3461 5.97915 75.1729 6.0217C74.9998 6.06425 74.8199 6.07176 74.6439 6.04382C74.4678 6.01587 74.2991 5.95302 74.1476 5.85895C73.9962 5.76489 73.8651 5.64151 73.762 5.49606L71.77 2.68906C71.399 2.1665 70.9083 1.74036 70.3388 1.4463C69.7694 1.15223 69.1379 0.998779 68.497 0.998779C67.8561 0.998779 67.2246 1.15223 66.6551 1.4463C66.0857 1.74036 65.595 2.1665 65.224 2.68906L63.232 5.49606C63.1289 5.64151 62.9978 5.76489 62.8464 5.85895C62.6949 5.95302 62.5262 6.01587 62.3501 6.04382C62.1741 6.07176 61.9942 6.06425 61.8211 6.0217C61.6479 5.97915 61.4851 5.90244 61.342 5.79606L58.58 3.74206C58.0657 3.35964 57.4672 3.10595 56.8347 3.0022C56.2023 2.89845 55.5541 2.94767 54.9446 3.14573C54.335 3.34379 53.7817 3.68495 53.331 4.14065C52.8803 4.59635 52.5453 5.15335 52.354 5.76506L51.327 9.05006C51.2738 9.21966 51.1874 9.37697 51.0727 9.5128C50.9581 9.64862 50.8175 9.76025 50.6593 9.84115C50.501 9.92205 50.3282 9.97061 50.151 9.98398C49.9737 9.99736 49.7956 9.97529 49.627 9.91906L46.365 8.81906C45.7574 8.61353 45.1094 8.55659 44.4753 8.653C43.8412 8.74942 43.2395 8.99639 42.7204 9.37322C42.2014 9.75005 41.7802 10.2458 41.4922 10.8189C41.2042 11.3919 41.0577 12.0257 41.065 12.6671L41.102 16.1091C41.104 16.2859 41.0709 16.4615 41.0046 16.6255C40.9383 16.7895 40.8401 16.9387 40.7158 17.0645C40.5915 17.1903 40.4434 17.2903 40.2802 17.3585C40.117 17.4267 39.9419 17.4619 39.765 17.4621H39.749L36.307 17.4231H36.262C35.6247 17.4234 34.9966 17.5756 34.4298 17.8669C33.8629 18.1581 33.3736 18.5802 33.0023 19.0982C32.6309 19.6161 32.3882 20.215 32.2943 20.8453C32.2003 21.4757 32.2578 22.1193 32.462 22.7231L33.562 25.9851C33.6182 26.1536 33.6404 26.3317 33.627 26.5089C33.6137 26.6861 33.5653 26.8588 33.4845 27.0171C33.4037 27.1753 33.2921 27.3159 33.1564 27.4306C33.0207 27.5453 32.8635 27.6318 32.694 27.6851L29.411 28.7091C28.7991 28.9003 28.242 29.2354 27.7861 29.6861C27.3303 30.1369 26.9891 30.6903 26.791 31.3C26.5929 31.9097 26.5438 32.558 26.6476 33.1906C26.7515 33.8232 27.0054 34.4217 27.388 34.9361L29.442 37.6971C29.5484 37.8401 29.6251 38.003 29.6676 38.1761C29.7102 38.3492 29.7177 38.5291 29.6898 38.7052C29.6618 38.8813 29.599 39.05 29.5049 39.2014C29.4108 39.3529 29.2874 39.484 29.142 39.5871L26.335 41.5791C25.8124 41.9501 25.3863 42.4408 25.0922 43.0102C24.7982 43.5796 24.6447 44.2112 24.6447 44.8521C24.6447 45.4929 24.7982 46.1245 25.0922 46.6939C25.3863 47.2633 25.8124 47.7541 26.335 48.1251L29.142 50.1171C29.2874 50.2201 29.4108 50.3513 29.5049 50.5027C29.599 50.6541 29.6618 50.8229 29.6898 50.9989C29.7177 51.175 29.7102 51.3549 29.6676 51.528C29.6251 51.7011 29.5484 51.864 29.442 52.0071L27.388 54.7691C27.0056 55.2834 26.7519 55.8818 26.6481 56.5143C26.5444 57.1468 26.5936 57.7949 26.7917 58.4045C26.9897 59.0141 27.3309 59.5673 27.7866 60.018C28.2423 60.4687 28.7993 60.8037 29.411 60.9951L32.696 62.0221C32.8656 62.0752 33.0229 62.1617 33.1587 62.2763C33.2946 62.391 33.4062 62.5315 33.4871 62.6898C33.568 62.848 33.6165 63.0208 33.6299 63.1981C33.6433 63.3753 33.6212 63.5534 33.565 63.7221L32.465 66.9841C32.2595 67.5916 32.2025 68.2396 32.2989 68.8737C32.3954 69.5078 32.6423 70.1096 33.0192 70.6286C33.396 71.1476 33.8917 71.5688 34.4648 71.8568C35.0379 72.1449 35.6716 72.2914 36.313 72.2841L37.327 72.2731L24.44 107.673C24.3277 108.004 24.3496 108.366 24.5009 108.681C24.6522 108.997 24.921 109.24 25.2496 109.36C25.5782 109.479 25.9406 109.466 26.2591 109.321C26.5777 109.177 26.8271 108.914 26.954 108.588L40.16 72.3091C40.4368 72.3908 40.6792 72.561 40.8501 72.7936C41.0209 73.0263 41.1108 73.3085 41.106 73.5971L41.067 77.0391C41.0597 77.6804 41.2062 78.3142 41.4942 78.8873C41.7822 79.4604 42.2034 79.9561 42.7224 80.3329C43.2415 80.7097 43.8432 80.9567 44.4773 81.0531C45.1114 81.1495 45.7594 81.0926 46.367 80.8871L49.629 79.7871C49.7976 79.7308 49.9757 79.7088 50.153 79.7221C50.3302 79.7355 50.503 79.7841 50.6613 79.865C50.8195 79.9459 50.9601 80.0575 51.0747 80.1933C51.1894 80.3292 51.2758 80.4865 51.329 80.6561L52.356 83.9411C52.5473 84.5529 52.8823 85.1101 53.3331 85.5659C53.7838 86.0218 54.3372 86.363 54.9469 86.5611C55.5566 86.7591 56.2049 86.8083 56.8375 86.7044C57.4701 86.6006 58.0686 86.3467 58.583 85.9641L61.342 83.9121L46.832 123.777L38.89 114.183C38.6225 113.86 38.2738 113.614 37.8797 113.471C37.4856 113.327 37.0605 113.292 36.648 113.367L24.289 115.631C24.2791 115.32 24.1612 115.023 23.9556 114.789C23.75 114.556 23.4696 114.401 23.1625 114.352C22.8554 114.303 22.5408 114.363 22.2728 114.521C22.0048 114.679 21.8001 114.925 21.694 115.217C21.5525 115.607 21.5162 116.028 21.5889 116.437C21.6615 116.845 21.8406 117.228 22.108 117.545C22.3741 117.865 22.7209 118.108 23.1125 118.249C23.5041 118.389 23.9262 118.423 24.335 118.345L36.947 116.034L45.124 125.911C45.3426 126.179 45.618 126.394 45.9302 126.542C46.2424 126.69 46.5836 126.766 46.929 126.766C47.0674 126.766 47.2056 126.754 47.342 126.73C47.7521 126.662 48.1366 126.485 48.4555 126.219C48.7745 125.952 49.0163 125.605 49.156 125.213L63.793 84.9991L65.225 87.0171C65.596 87.5396 66.0867 87.9658 66.6561 88.2598C67.2256 88.5539 67.8571 88.7073 68.498 88.7073C69.1389 88.7073 69.7704 88.5539 70.3398 88.2598C70.9093 87.9658 71.4 87.5396 71.771 87.0171L73.203 84.9991L87.84 125.213C87.9798 125.605 88.2216 125.952 88.5406 126.218C88.8595 126.485 89.2439 126.662 89.654 126.73C89.7904 126.754 89.9286 126.766 90.067 126.766C90.4126 126.766 90.7539 126.69 91.0663 126.542C91.3787 126.394 91.6542 126.179 91.873 125.911L100.049 116.034L112.661 118.345C113.07 118.422 113.492 118.389 113.883 118.248C114.275 118.108 114.622 117.865 114.888 117.545C115.156 117.228 115.335 116.845 115.408 116.437C115.481 116.028 115.444 115.607 115.303 115.217L115.302 115.22ZM71.582 82.6631L69.59 85.4701C69.4663 85.6442 69.3027 85.7863 69.1129 85.8843C68.9231 85.9823 68.7126 86.0335 68.499 86.0335C68.2854 86.0335 68.0749 85.9823 67.885 85.8843C67.6952 85.7863 67.5317 85.6442 67.408 85.4701L65.416 82.6631C65.1079 82.2259 64.7149 81.8553 64.2605 81.5734C63.806 81.2915 63.2995 81.104 62.771 81.0221C62.56 80.9886 62.3466 80.9719 62.133 80.9721C61.2731 80.9722 60.4364 81.2508 59.748 81.7661L56.987 83.8201C56.8155 83.9477 56.6159 84.0323 56.405 84.0669C56.194 84.1016 55.9779 84.0851 55.7746 84.019C55.5713 83.9529 55.3868 83.8391 55.2365 83.687C55.0863 83.535 54.9747 83.3491 54.911 83.1451L53.884 79.8601C53.7244 79.3498 53.4644 78.8766 53.1195 78.4682C52.7745 78.0598 52.3514 77.7244 51.875 77.4818C51.3986 77.2391 50.8786 77.0941 50.3454 77.0551C49.8122 77.0162 49.2766 77.0842 48.77 77.2551L45.508 78.3551C45.3055 78.4233 45.0897 78.442 44.8785 78.4097C44.6674 78.3773 44.467 78.2949 44.2942 78.1693C44.1214 78.0437 43.9812 77.8786 43.8853 77.6877C43.7894 77.4968 43.7406 77.2857 43.743 77.0721L43.782 73.6301C43.7878 73.0993 43.6883 72.5727 43.4893 72.0807C43.2902 71.5887 42.9956 71.141 42.6223 70.7636C42.2491 70.3862 41.8048 70.0866 41.315 69.8821C40.8252 69.6775 40.2998 69.5722 39.769 69.5721H39.723L36.282 69.6091H36.266C36.0541 69.6084 35.8454 69.5574 35.6571 69.4602C35.4687 69.3631 35.3062 69.2226 35.1828 69.0504C35.0593 68.8782 34.9786 68.6791 34.9472 68.4695C34.9157 68.26 34.9345 68.0459 35.002 67.8451L36.102 64.5831C36.2729 64.0765 36.3409 63.5409 36.3019 63.0077C36.263 62.4745 36.1179 61.9544 35.8753 61.4781C35.6326 61.0017 35.2972 60.5786 34.8888 60.2336C34.4804 59.8886 34.0072 59.6287 33.497 59.4691L30.212 58.4421C30.0081 58.3783 29.8224 58.2667 29.6705 58.1166C29.5185 57.9664 29.4048 57.782 29.3387 57.5789C29.2726 57.3757 29.2561 57.1597 29.2906 56.9489C29.3251 56.738 29.4096 56.5385 29.537 56.3671L31.588 53.6091C31.907 53.1799 32.137 52.6914 32.2645 52.1721C32.3921 51.6528 32.4146 51.1133 32.3308 50.5852C32.2469 50.0571 32.0584 49.5511 31.7763 49.0968C31.4942 48.6426 31.1242 48.2493 30.688 47.9401L27.881 45.9481C27.7068 45.8244 27.5648 45.6608 27.4667 45.471C27.3687 45.2812 27.3176 45.0707 27.3176 44.8571C27.3176 44.6434 27.3687 44.4329 27.4667 44.2431C27.5648 44.0533 27.7068 43.8897 27.881 43.7661L30.688 41.7741C31.1242 41.4648 31.4942 41.0715 31.7763 40.6173C32.0584 40.163 32.2469 39.657 32.3308 39.1289C32.4146 38.6008 32.3921 38.0613 32.2645 37.542C32.137 37.0228 31.907 36.5342 31.588 36.1051L29.534 33.3441C29.4064 33.1726 29.3217 32.9731 29.287 32.7622C29.2523 32.5513 29.2687 32.3352 29.3347 32.1319C29.4006 31.9287 29.5144 31.7441 29.6663 31.5938C29.8183 31.4435 30.004 31.3318 30.208 31.2681L33.494 30.2411C34.0047 30.0818 34.4785 29.822 34.8874 29.477C35.2963 29.132 35.6321 28.7087 35.875 28.2321C36.118 27.7555 36.2633 27.2351 36.3022 26.7015C36.3412 26.1679 36.2731 25.6319 36.102 25.1251L35.002 21.8641C34.9341 21.6628 34.915 21.4483 34.9464 21.2383C34.9778 21.0282 35.0587 20.8287 35.1825 20.6561C35.3064 20.4835 35.4695 20.3429 35.6584 20.2459C35.8473 20.1488 36.0566 20.0982 36.269 20.0981H36.285L39.727 20.1371H39.773C40.3038 20.1368 40.8292 20.0313 41.3189 19.8267C41.8087 19.622 42.2529 19.3223 42.6261 18.9448C42.9992 18.5673 43.2937 18.1196 43.4926 17.6275C43.6916 17.1354 43.7909 16.6088 43.785 16.0781L43.746 12.6361C43.7436 12.4224 43.7924 12.2114 43.8883 12.0205C43.9842 11.8296 44.1244 11.6644 44.2972 11.5388C44.47 11.4132 44.6704 11.3308 44.8815 11.2985C45.0927 11.2661 45.3085 11.2849 45.511 11.3531L48.773 12.4531C49.2796 12.624 49.8152 12.6919 50.3484 12.653C50.8816 12.6141 51.4016 12.469 51.878 12.2264C52.3544 11.9837 52.7775 11.6483 53.1225 11.2399C53.4674 10.8315 53.7274 10.3583 53.887 9.84806L54.914 6.56306C54.9777 6.35916 55.0893 6.17347 55.2395 6.02154C55.3897 5.8696 55.574 5.75583 55.7772 5.68975C55.9803 5.62366 56.1964 5.60719 56.4072 5.64169C56.618 5.67619 56.8175 5.76067 56.989 5.88806L59.751 7.94206C60.1801 8.26103 60.6687 8.49104 61.188 8.6186C61.7072 8.74615 62.2468 8.76866 62.7749 8.68482C63.3029 8.60099 63.809 8.41248 64.2632 8.13038C64.7174 7.84827 65.1107 7.47826 65.42 7.04206L67.412 4.23506C67.5357 4.06087 67.6992 3.91883 67.889 3.82081C68.0789 3.72278 68.2894 3.67163 68.503 3.67163C68.7166 3.67163 68.9271 3.72278 69.1169 3.82081C69.3067 3.91883 69.4703 4.06087 69.594 4.23506L71.586 7.04206C71.8953 7.47826 72.2885 7.84827 72.7428 8.13038C73.197 8.41248 73.703 8.60099 74.2311 8.68482C74.7592 8.76866 75.2987 8.74615 75.818 8.6186C76.3373 8.49104 76.8259 8.26103 77.255 7.94206L80.016 5.88806C80.1874 5.76044 80.3869 5.67575 80.5978 5.64106C80.8087 5.60638 81.0249 5.62272 81.2281 5.68872C81.4314 5.75472 81.6159 5.86845 81.7662 6.02039C81.9165 6.17234 82.0282 6.35808 82.092 6.56206L83.119 9.84806C83.2786 10.3583 83.5385 10.8315 83.8835 11.2399C84.2285 11.6483 84.6516 11.9837 85.128 12.2264C85.6044 12.469 86.1244 12.6141 86.6576 12.653C87.1908 12.6919 87.7264 12.624 88.233 12.4531L91.495 11.3531C91.6974 11.2849 91.9133 11.2661 92.1245 11.2985C92.3356 11.3308 92.536 11.4132 92.7088 11.5388C92.8816 11.6644 93.0218 11.8296 93.1177 12.0205C93.2136 12.2114 93.2624 12.4224 93.26 12.6361L93.221 16.0781C93.215 16.6089 93.3144 17.1356 93.5134 17.6277C93.7124 18.1199 94.0071 18.5677 94.3803 18.9452C94.7535 19.3227 95.1979 19.6224 95.6877 19.827C96.1776 20.0316 96.7031 20.137 97.234 20.1371H97.28L100.722 20.0981C100.937 20.0925 101.149 20.1398 101.341 20.2359C101.533 20.332 101.698 20.4739 101.822 20.6491C101.948 20.8219 102.03 21.0228 102.062 21.2344C102.093 21.446 102.073 21.6621 102.002 21.8641L100.902 25.1261C100.731 25.6322 100.663 26.1674 100.702 26.7003C100.74 27.2331 100.885 27.7529 101.127 28.2291C101.369 28.7053 101.704 29.1284 102.112 29.4735C102.52 29.8186 102.992 30.0789 103.502 30.2391L106.787 31.2661C106.991 31.3298 107.177 31.4414 107.329 31.5916C107.48 31.7417 107.594 31.9261 107.66 32.1293C107.726 32.3324 107.743 32.5484 107.708 32.7593C107.674 32.9701 107.589 33.1696 107.462 33.3411L105.408 36.1031C105.089 36.5322 104.859 37.0208 104.731 37.54C104.604 38.0593 104.581 38.5988 104.665 39.1269C104.749 39.655 104.938 40.161 105.22 40.6153C105.502 41.0695 105.872 41.4628 106.308 41.7721L109.115 43.7641C109.289 43.8877 109.431 44.0513 109.529 44.2411C109.627 44.4309 109.678 44.6414 109.678 44.8551C109.678 45.0687 109.627 45.2792 109.529 45.469C109.431 45.6588 109.289 45.8224 109.115 45.9461L106.308 47.9381C105.872 48.2473 105.502 48.6406 105.22 49.0948C104.938 49.5491 104.749 50.0551 104.665 50.5832C104.581 51.1113 104.604 51.6508 104.731 52.1701C104.859 52.6894 105.089 53.1779 105.408 53.6071L107.462 56.3681C107.59 56.5395 107.674 56.739 107.709 56.9499C107.744 57.1608 107.727 57.3769 107.661 57.5802C107.595 57.7835 107.482 57.968 107.33 58.1183C107.178 58.2686 106.992 58.3803 106.788 58.4441L103.502 59.4701C102.992 59.6297 102.519 59.8896 102.11 60.2346C101.702 60.5796 101.366 61.0027 101.124 61.4791C100.881 61.9554 100.736 62.4755 100.697 63.0087C100.658 63.5419 100.726 64.0775 100.897 64.5841L101.997 67.8461C102.066 68.0483 102.086 68.2644 102.054 68.4758C102.022 68.6872 101.939 68.8877 101.812 69.0601C101.688 69.2356 101.523 69.3778 101.331 69.4739C101.139 69.5701 100.927 69.6172 100.712 69.6111L97.27 69.5721C96.7355 69.5662 96.2051 69.6671 95.7101 69.869C95.2151 70.0708 94.7654 70.3695 94.3874 70.7475C94.0094 71.1255 93.7107 71.5752 93.5089 72.0702C93.307 72.5652 93.2061 73.0955 93.212 73.6301L93.251 77.0721C93.2534 77.2857 93.2046 77.4968 93.1087 77.6877C93.0128 77.8786 92.8726 78.0437 92.6998 78.1693C92.527 78.2949 92.3266 78.3773 92.1155 78.4097C91.9043 78.442 91.6884 78.4233 91.486 78.3551L88.224 77.2551C87.7174 77.0842 87.1818 77.0162 86.6486 77.0551C86.1154 77.0941 85.5954 77.2391 85.119 77.4818C84.6426 77.7244 84.2195 78.0598 83.8745 78.4682C83.5295 78.8766 83.2696 79.3498 83.11 79.8601L82.083 83.1451C82.0193 83.349 81.9077 83.5347 81.7575 83.6866C81.6073 83.8385 81.4229 83.9523 81.2198 84.0184C81.0167 84.0845 80.8006 84.1009 80.5898 84.0664C80.379 84.0319 80.1795 83.9475 80.008 83.8201L77.246 81.7661C76.8168 81.4472 76.3282 81.2173 75.809 81.0898C75.2897 80.9624 74.7502 80.9399 74.2222 81.0237C73.6941 81.1076 73.1882 81.296 72.7339 81.578C72.2797 81.8601 71.8863 82.23 71.577 82.6661L71.582 82.6631Z" fill="#0000CC"/>
<path d="M68.5 77.4041C86.4769 77.4041 101.05 62.8309 101.05 44.8541C101.05 26.8772 86.4769 12.3041 68.5 12.3041C50.5231 12.3041 35.95 26.8772 35.95 44.8541C35.95 62.8309 50.5231 77.4041 68.5 77.4041Z" fill="#FF7300"/>
<path d="M68.5 73.3181C62.8706 73.3179 57.3676 71.6484 52.6871 68.5207C48.0065 65.3931 44.3585 60.9477 42.2043 55.7467C40.0502 50.5458 39.4866 44.8228 40.585 39.3016C41.6834 33.7804 44.3943 28.7089 48.375 24.7284C52.3556 20.7478 57.4272 18.0371 62.9485 16.9389C68.4697 15.8408 74.1926 16.4045 79.3935 18.5588C84.5944 20.7131 89.0397 24.3613 92.1672 29.042C95.2947 33.7227 96.964 39.2257 96.964 44.8551C96.9542 52.4011 93.9521 59.6353 88.6162 64.971C83.2803 70.3068 76.046 73.3086 68.5 73.3181ZM68.5 19.0671C63.3996 19.0671 58.4137 20.5795 54.1729 23.4132C49.9321 26.2468 46.6268 30.2743 44.675 34.9865C42.7231 39.6986 42.2125 44.8837 43.2075 49.8861C44.2025 54.8885 46.6586 59.4835 50.2651 63.09C53.8716 66.6965 58.4666 69.1526 63.469 70.1476C68.4714 71.1426 73.6565 70.6319 78.3686 68.6801C83.0808 66.7283 87.1083 63.423 89.9419 59.1821C92.7755 54.9413 94.288 49.9555 94.288 44.8551C94.2803 38.0181 91.5609 31.4632 86.7264 26.6287C81.8919 21.7942 75.337 19.0748 68.5 19.0671Z" fill="#FFC599"/>
<path d="M69.5 53.442C69.3136 53.4421 69.1292 53.4031 68.9587 53.3277C68.7882 53.2523 68.6354 53.142 68.51 53.004L54.689 37.811C54.4814 37.5829 54.359 37.2901 54.3426 36.9821C54.3262 36.6741 54.4168 36.3699 54.599 36.121L58.332 31.021C58.4563 30.8512 58.6188 30.713 58.8065 30.6178C58.9941 30.5226 59.2016 30.473 59.412 30.473H79.588C79.7985 30.4729 80.006 30.5225 80.1936 30.6177C80.3813 30.7129 80.5438 30.8511 80.668 31.021L84.401 36.121C84.5833 36.3699 84.6739 36.6741 84.6575 36.9821C84.6411 37.2901 84.5187 37.5829 84.311 37.811L70.49 53.004C70.3647 53.142 70.2118 53.2523 70.0413 53.3277C69.8708 53.4031 69.6865 53.4421 69.5 53.442ZM57.4 36.819L69.5 50.119L81.6 36.819L78.912 33.144H60.095L57.4 36.819Z" fill="white"/>
<path d="M69.501 53.442C69.2147 53.4419 68.9359 53.35 68.7057 53.1797C68.4755 53.0095 68.3059 52.7698 68.222 52.496L63.574 37.303C63.5034 37.0721 63.4965 36.8265 63.554 36.592L64.809 31.492C64.8806 31.2014 65.0476 30.9431 65.2833 30.7586C65.519 30.574 65.8097 30.4738 66.1091 30.474H72.893C73.1924 30.4738 73.4831 30.574 73.7188 30.7586C73.9545 30.9431 74.1215 31.2014 74.1931 31.492L75.448 36.592C75.5054 36.8265 75.4985 37.0721 75.4281 37.303L70.784 52.495C70.7003 52.7697 70.5303 53.0101 70.2992 53.1807C70.0681 53.3513 69.7883 53.4429 69.501 53.442ZM66.241 36.872L69.501 47.53L72.761 36.872L71.8441 33.144H67.157L66.241 36.872Z" fill="white"/>
<path d="M83.322 38.2521H55.679C55.3242 38.2521 54.9838 38.1111 54.7329 37.8602C54.482 37.6092 54.341 37.2689 54.341 36.9141C54.341 36.5592 54.482 36.2189 54.7329 35.9679C54.9838 35.717 55.3242 35.576 55.679 35.576H83.322C83.4977 35.576 83.6717 35.6107 83.834 35.6779C83.9964 35.7451 84.1439 35.8437 84.2681 35.9679C84.3924 36.0922 84.4909 36.2397 84.5582 36.402C84.6254 36.5644 84.66 36.7384 84.66 36.9141C84.66 37.0898 84.6254 37.2638 84.5582 37.4261C84.4909 37.5884 84.3924 37.7359 84.2681 37.8602C84.1439 37.9844 83.9964 38.083 83.834 38.1502C83.6717 38.2174 83.4977 38.2521 83.322 38.2521Z" fill="white"/>
<path d="M71.173 60.534H67.828C67.6523 60.534 67.4784 60.4994 67.316 60.4322C67.1537 60.3649 67.0062 60.2664 66.8819 60.1421C66.7577 60.0179 66.6591 59.8704 66.5919 59.7081C66.5247 59.5457 66.4901 59.3717 66.4901 59.196C66.4901 59.0203 66.5247 58.8463 66.5919 58.684C66.6591 58.5217 66.7577 58.3742 66.8819 58.2499C67.0062 58.1257 67.1537 58.0271 67.316 57.9599C67.4784 57.8926 67.6523 57.858 67.828 57.858H71.173C71.3488 57.858 71.5228 57.8926 71.6851 57.9599C71.8474 58.0271 71.9949 58.1257 72.1192 58.2499C72.2434 58.3742 72.342 58.5217 72.4092 58.684C72.4764 58.8463 72.511 59.0203 72.511 59.196C72.511 59.3717 72.4764 59.5457 72.4092 59.7081C72.342 59.8704 72.2434 60.0179 72.1192 60.1421C71.9949 60.2664 71.8474 60.3649 71.6851 60.4322C71.5228 60.4994 71.3488 60.534 71.173 60.534Z" fill="white"/>
<path d="M17.199 70.849C17.0233 70.8493 16.8492 70.8148 16.6869 70.7476C16.5245 70.6803 16.3771 70.5815 16.253 70.457L14.523 68.727L12.793 70.457C12.5408 70.7017 12.2026 70.8373 11.8512 70.8346C11.4999 70.832 11.1637 70.6912 10.9153 70.4428C10.6668 70.1943 10.5261 69.8581 10.5234 69.5068C10.5207 69.1555 10.6564 68.8172 10.901 68.565L13.577 65.889C13.7012 65.7647 13.8487 65.6661 14.011 65.5988C14.1733 65.5315 14.3473 65.4968 14.523 65.4968C14.6987 65.4968 14.8727 65.5315 15.0351 65.5988C15.1974 65.6661 15.3449 65.7647 15.469 65.889L18.145 68.565C18.3321 68.7522 18.4595 68.9905 18.5111 69.2501C18.5627 69.5096 18.5362 69.7785 18.435 70.023C18.3337 70.2675 18.1623 70.4764 17.9423 70.6234C17.7223 70.7705 17.4636 70.849 17.199 70.849Z" fill="#FF9D33"/>
<path d="M125.153 57.2991C124.977 57.2993 124.803 57.2648 124.641 57.1976C124.479 57.1303 124.331 57.0316 124.207 56.9071L122.477 55.1771L120.747 56.9071C120.623 57.0344 120.476 57.1359 120.313 57.2057C120.15 57.2754 119.974 57.3121 119.797 57.3134C119.619 57.3147 119.444 57.2808 119.279 57.2135C119.115 57.1463 118.966 57.047 118.841 56.9216C118.715 56.7961 118.616 56.647 118.549 56.4828C118.481 56.3186 118.447 56.1427 118.449 55.9653C118.45 55.7879 118.487 55.6125 118.556 55.4494C118.626 55.2863 118.728 55.1386 118.855 55.0151L121.531 52.3391C121.655 52.2148 121.803 52.1161 121.965 52.0488C122.127 51.9815 122.301 51.9469 122.477 51.9469C122.653 51.9469 122.827 51.9815 122.989 52.0488C123.151 52.1161 123.299 52.2148 123.423 52.3391L126.099 55.0151C126.286 55.2022 126.413 55.4406 126.465 55.7001C126.517 55.9596 126.49 56.2286 126.389 56.4731C126.288 56.7176 126.116 56.9265 125.896 57.0735C125.676 57.2206 125.418 57.299 125.153 57.2991Z" fill="#6C6CFF"/>
<path d="M118.002 73.5251C117.826 73.5254 117.652 73.4909 117.49 73.4236C117.327 73.3563 117.18 73.2576 117.056 73.1331L115.326 71.403L113.596 73.1331C113.344 73.3777 113.006 73.5133 112.654 73.5107C112.303 73.508 111.967 73.3672 111.718 73.1188C111.47 72.8704 111.329 72.5342 111.326 72.1828C111.324 71.8315 111.459 71.4932 111.704 71.2411L114.38 68.565C114.504 68.4407 114.652 68.3421 114.814 68.2748C114.976 68.2075 115.15 68.1729 115.326 68.1729C115.502 68.1729 115.676 68.2075 115.838 68.2748C116 68.3421 116.148 68.4407 116.272 68.565L118.948 71.2411C119.135 71.4282 119.262 71.6666 119.314 71.9261C119.366 72.1856 119.339 72.4546 119.238 72.699C119.137 72.9435 118.965 73.1524 118.745 73.2995C118.525 73.4465 118.267 73.525 118.002 73.5251Z" fill="#FF6C6C"/>
<path d="M22.89 85.7001C22.6254 85.7001 22.3668 85.6216 22.1468 85.4745C21.9268 85.3275 21.7553 85.1186 21.6541 84.8741C21.5528 84.6296 21.5263 84.3607 21.5779 84.1011C21.6296 83.8416 21.7569 83.6032 21.944 83.4161L24.62 80.7401C24.7436 80.6127 24.8912 80.5113 25.0543 80.4415C25.2174 80.3718 25.3928 80.3351 25.5702 80.3338C25.7476 80.3324 25.9235 80.3664 26.0877 80.4337C26.2519 80.5009 26.401 80.6002 26.5265 80.7257C26.6519 80.8511 26.7512 81.0002 26.8185 81.1644C26.8857 81.3286 26.9197 81.5045 26.9183 81.6819C26.917 81.8593 26.8804 82.0347 26.8106 82.1978C26.7409 82.361 26.6394 82.5086 26.512 82.6321L23.836 85.3081C23.712 85.4326 23.5645 85.5313 23.4022 85.5985C23.2398 85.6658 23.0658 85.7004 22.89 85.7001Z" fill="#6C6CFF"/>
<path d="M19.414 25.505C19.1494 25.505 18.8908 25.4265 18.6708 25.2794C18.4508 25.1324 18.2793 24.9235 18.1781 24.679C18.0768 24.4345 18.0503 24.1656 18.1019 23.906C18.1535 23.6465 18.2809 23.4081 18.468 23.221L21.144 20.545C21.3962 20.3004 21.7345 20.1647 22.0858 20.1674C22.4371 20.1701 22.7733 20.3108 23.0218 20.5593C23.2702 20.8077 23.411 21.1439 23.4136 21.4952C23.4163 21.8465 23.2807 22.1848 23.036 22.437L20.36 25.113C20.236 25.2375 20.0885 25.3362 19.9262 25.4035C19.7638 25.4707 19.5898 25.5052 19.414 25.505Z" fill="#FF6C6C"/>
<defs>
<linearGradient id="paint0_linear" x1="74.254" y1="-1.15781" x2="64.5852" y2="137.172" gradientUnits="userSpaceOnUse">
<stop offset="0.007" stop-color="#9494FF"/>
<stop offset="0.992" stop-color="#FFE8DC" stop-opacity="0"/>
</linearGradient>
</defs>
</svg>
